<svg width="8" height="8" viewBox="0 0 8 8" fill="none" xmlns="http://www.w3.org/2000/svg">
<path fill-rule="evenodd" clip-rule="evenodd" d="M1.36474 0.218926C1.07355 -0.075661 0.601435 -0.0756609 0.310246 0.218926C0.0190565 0.513513 0.0190565 0.991134 0.310246 1.28572L2.94492 3.95114L0.216439 6.71146C-0.0747505 7.00604 -0.0747505 7.48366 0.216439 7.77825C0.507628 8.07284 0.97974 8.07284 1.27093 7.77825L3.99941 5.01793L6.72779 7.77815C7.01898 8.07274 7.49109 8.07274 7.78228 7.77815C8.07347 7.48356 8.07347 7.00594 7.78228 6.71136L5.0539 3.95114L7.68848 1.28582C7.97966 0.991235 7.97967 0.513615 7.68848 0.219027C7.39729 -0.0755597 6.92517 -0.0755594 6.63399 0.219027L3.99941 2.88434L1.36474 0.218926Z" fill="#555555"/>
</svg>
